<?xml version="1.0" encoding="UTF-8"?>
<svg width="22px" height="26px" viewBox="0 0 22 26" version="1.1" xmlns="http://www.w3.org/2000/svg" xmlns:xlink="http://www.w3.org/1999/xlink">
    <!-- Generator: Sketch 59 (86127) - https://sketch.com -->
    <title>icon_YouTube</title>
    <desc>Created with Sketch.</desc>
    <g id="knowHAE.com-2.0" stroke="none" stroke-width="1" fill="none" fill-rule="evenodd">
        <g id="3.2_Immature-HCP" transform="translate(-1159.000000, -47.000000)" fill="#F5333F">
            <g id="header_general_expanded">
                <g id="icon_YouTube" transform="translate(1159.000000, 47.000000)">
                    <g id="Fill-1">
                        <path d="M5.333416,10.1789711 L6.942056,10.1789711 L6.943816,4.70163778 L8.844616,0.00950444444 L7.08520267,0.00950444444 L6.07466933,3.49466 L5.04976267,-2.88888889e-05 L3.308536,-2.88888889e-05 L5.330776,4.70423778 L5.333416,10.1789711 Z M10.0525627,8.25930444 C10.0525627,8.66374889 10.358216,8.99394889 10.730456,8.99394889 C11.1029893,8.99394889 11.4074693,8.66374889 11.4074693,8.25930444 L11.4074693,4.45752667 C11.4074693,4.05366 11.1029893,3.72346 10.730456,3.72346 C10.358216,3.72346 10.0525627,4.05366 10.0525627,4.45752667 L10.0525627,8.25930444 Z M8.717016,5.42241556 C8.717016,4.73688222 8.775096,4.20157111 8.890376,3.81561556 C9.006536,3.43110444 9.215096,3.12199333 9.51722933,2.88886 C9.81848267,2.65457111 10.204216,2.53728222 10.673256,2.53728222 C11.0677893,2.53728222 11.4057093,2.61354889 11.687896,2.76290444 C11.971256,2.91312667 12.1900827,3.10812667 12.3420293,3.34877111 C12.4963227,3.59028222 12.6016293,3.83843778 12.657656,4.09237111 C12.714856,4.34977111 12.743016,4.73803778 12.743016,5.26179333 L12.743016,7.06792667 C12.743016,7.73034889 12.715736,8.21770444 12.6635227,8.52710444 C12.6116027,8.83737111 12.500136,9.12510444 12.3273627,9.39492667 C12.1572293,9.66186 11.9375227,9.86148222 11.671176,9.98888222 C11.401896,10.1174378 11.093896,10.1804156 10.7460027,10.1804156 C10.357336,10.1804156 10.029976,10.1275489 9.76010933,10.0171933 C9.48936267,9.90741556 9.280216,9.74188222 9.13120267,9.52203778 C8.98072267,9.30190444 8.87482933,9.03381556 8.81088267,8.72123778 C8.74664267,8.40894889 8.716136,7.93921556 8.716136,7.31319333 L8.717016,5.42241556 Z M13.884376,9.45588222 C13.9629893,9.64481556 14.0856027,9.79792667 14.252216,9.91348222 C14.4164827,10.0273044 14.6265093,10.0845044 14.8781893,10.0845044 C15.098776,10.0845044 15.294136,10.02586 15.4642693,9.90481556 C15.633816,9.78434889 15.7766693,9.60437111 15.893416,9.36430444 L15.864376,9.95537111 L17.5695227,9.95537111 L17.5695227,2.81374889 L16.2272293,2.81374889 L16.2272293,8.37197111 C16.2272293,8.67299333 15.9755493,8.91941556 15.6678427,8.91941556 C15.361896,8.91941556 15.109336,8.67299333 15.109336,8.37197111 L15.109336,2.81374889 L13.708376,2.81374889 L13.708376,7.63068222 C13.708376,8.24428222 13.719816,8.65334889 13.738296,8.86077111 C13.7573627,9.06674889 13.8054693,9.26434889 13.884376,9.45588222 L13.884376,9.45588222 Z M19.7677627,21.0773044 L18.6211227,21.08366 C18.6202427,21.1281489 18.618776,21.1801489 18.6181893,21.2361933 L18.6181893,21.8668378 C18.6181893,22.2039711 18.3351227,22.4787044 17.991336,22.4787044 L17.7666427,22.4787044 C17.421976,22.4787044 17.1392027,22.2039711 17.1392027,21.8668378 L17.1392027,21.7966378 L17.1392027,21.1033044 L17.1392027,20.2086156 L19.7657093,20.2086156 L19.7657093,19.23506 C19.7657093,18.5235267 19.7472293,17.8122822 19.6873893,17.4055267 C19.4990693,16.1188156 17.6654427,15.9145711 16.739096,16.5732378 C16.4484027,16.7789267 16.2263493,17.0542378 16.0972827,17.4243044 C15.9667493,17.7940822 15.902216,18.2996378 15.902216,18.9418378 L15.902216,21.0825044 C15.9028027,24.6410378 20.291656,24.1380822 19.7677627,21.0773044 L19.7677627,21.0773044 Z M14.9805667,21.5533933 L14.9770427,17.9630822 C14.9761627,16.5949044 13.9368827,15.7759044 12.5262427,16.8829267 L12.5324027,14.2135933 L11.0044293,14.2159044 L10.997096,23.4285711 L12.253736,23.41066 L12.368136,22.8369267 C13.9735493,24.2874378 14.9829093,23.2933711 14.9805667,21.5533933 L14.9805667,21.5533933 Z M10.0868827,16.6136822 L8.55714933,16.6136822 L8.55714933,20.9273711 C8.55714933,21.5510822 8.595576,21.8630822 8.55480267,21.9731489 C8.43042933,22.3076822 7.871336,22.6630156 7.65338933,22.00926 C7.61642933,21.89486 7.64898933,21.5496378 7.64840267,20.9568378 L7.64224267,16.6136822 L6.121016,16.6136822 L6.12570933,20.88866 C6.12688267,21.54386 6.11074933,22.0323711 6.13098933,22.2548156 C6.16824267,22.6468378 6.15504267,23.10386 6.52434933,23.3650156 C7.21250933,23.8532378 8.53162933,23.2922156 8.86162933,22.59426 L8.858696,23.4849044 L10.087176,23.4863489 L10.0868827,16.6136822 Z M4.58688267,23.4880822 L4.58570933,15.41046 L6.42050933,15.4110378 L6.42050933,14.2141711 L1.52946933,14.2069489 L1.52946933,15.3835933 L3.05626933,15.3879267 L3.05626933,23.4880822 L4.58688267,23.4880822 Z M22.0000293,14.9872378 L22.0000293,22.6555044 C22.0000293,24.49486 20.3802427,25.9999711 18.4008293,25.9999711 L3.59952267,25.9999711 C1.61922933,25.9999711 2.93333333e-05,24.49486 2.93333333e-05,22.6555044 L2.93333333e-05,14.9872378 C2.93333333e-05,13.1478822 1.61922933,11.6424822 3.59952267,11.6424822 L18.4008293,11.6424822 C20.3802427,11.6424822 22.0000293,13.1478822 22.0000293,14.9872378 L22.0000293,14.9872378 Z M13.1745093,17.2420156 C12.8069627,17.2420156 12.506296,17.4855489 12.506296,17.7831044 L12.506296,21.8139711 C12.506296,22.1112378 12.8069627,22.3539044 13.1745093,22.3539044 C13.5435227,22.3539044 13.8444827,22.1112378 13.8444827,21.8139711 L13.8444827,17.7831044 C13.8444827,17.48526 13.5435227,17.2420156 13.1745093,17.2420156 L13.1745093,17.2420156 Z M18.6088027,19.0181044 L17.1600293,19.0181044 L17.166776,18.1892822 C17.166776,17.8212378 17.473896,17.5196378 17.8490693,17.5196378 L17.9414693,17.5196378 C18.3175227,17.5196378 18.6255227,17.8212378 18.6255227,18.1892822 L18.6088027,19.0181044 Z"></path>
                    </g>
                </g>
            </g>
        </g>
    </g>
</svg>