<?xml version="1.0" encoding="UTF-8"?>
<svg width="179px" height="53px" viewBox="0 0 179 53" version="1.1" xmlns="http://www.w3.org/2000/svg" xmlns:xlink="http://www.w3.org/1999/xlink">
    <!-- Generator: Sketch 59.1 (86144) - https://sketch.com -->
    <title>logo_knowHAE_03</title>
    <desc>Created with Sketch.</desc>
    <defs>
        <polygon id="path-1" points="0.175294955 0.0707586207 32.1502988 0.0707586207 32.1502988 33.562795 0.175294955 33.562795"></polygon>
        <polygon id="path-3" points="0 0.0941797241 6.52400582 0.0941797241 6.52400582 6.68534524 0 6.68534524"></polygon>
        <polygon id="path-5" points="0.111220828 0.0406626207 2.28978745 0.0406626207 2.28978745 3.30206897 0.111220828 3.30206897"></polygon>
        <polygon id="path-7" points="0.0761849935 0.0406626207 2.25498318 0.0406626207 2.25498318 3.30206897 0.0761849935 3.30206897"></polygon>
        <polygon id="path-9" points="0 52.8331034 178.949056 52.8331034 178.949056 0.0707586207 0 0.0707586207"></polygon>
    </defs>
    <g id="knowHAE.com-2.0" stroke="none" stroke-width="1" fill="none" fill-rule="evenodd">
        <g id="3.1_Immature-HCP-1" transform="translate(-70.000000, -34.000000)">
            <g id="header_general_expanded">
                <g id="logo_knowHAE_03" transform="translate(70.000000, 34.000000)">
                    <g id="logo_knowHAE_01">
                        <g id="Group-65">
                            <polygon id="Fill-1" fill="#F5333F" points="0.134423674 0.23598 0.134423674 33.7354697 6.59231759 33.7354697 6.59231759 24.9172945 13.8931093 33.7354697 21.8946177 33.7354697 10.9915957 21.2949248 20.0701145 11.4752793 11.7870226 11.4752793 6.59231759 17.5765593 6.59231759 0.23598"></polygon>
                            <g id="Group-64" transform="translate(0.000000, 0.165103)">
                                <path d="M28.4463188,33.5703662 L21.9416486,33.5703662 L21.9416486,11.3101759 L28.4463188,11.3101759 L28.4463188,14.5516283 C29.6164184,12.3116462 32.190267,10.8339703 34.7641157,10.8339703 C39.6781635,10.8339703 42.7667819,13.9317828 42.7667819,20.2717552 L42.7667819,33.5703662 L36.2621118,33.5703662 L36.2621118,21.7017869 C36.2621118,18.7461993 34.671258,17.2685234 32.4711558,17.2685234 C30.1779643,17.2685234 28.4463188,18.4129262 28.4463188,21.7968393 L28.4463188,33.5703662 Z" id="Fill-2" fill="#F5333F"></path>
                                <path d="M60.2268541,22.3687577 C60.2268541,19.3659977 57.9806704,17.3163563 55.2669563,17.3163563 C52.5993237,17.3163563 50.3529084,19.3659977 50.3529084,22.3687577 C50.3529084,25.4672777 52.5993237,27.469039 55.2669563,27.469039 C57.9806704,27.469039 60.2268541,25.4672777 60.2268541,22.3687577 M43.941096,22.3687577 C43.941096,15.362239 49.0887933,10.8339232 55.2669563,10.8339232 C61.4439614,10.8339232 66.6386665,15.362239 66.6386665,22.3687577 C66.6386665,29.375748 61.4439614,33.9519439 55.2669563,33.9519439 C49.0887933,33.9519439 43.941096,29.375748 43.941096,22.3687577" id="Fill-4" fill="#F5333F"></path>
                                <polygon id="Fill-6" fill="#F5333F" points="92.2891581 33.5703662 86.8608036 33.5703662 82.5553094 19.4139248 78.4366885 33.5703662 73.0078709 33.5703662 65.0994517 11.3101759 72.0258023 11.3101759 75.909616 24.5616145 79.7475798 11.3101759 85.3160313 11.3101759 89.1537635 24.5616145 93.0375772 11.3101759 99.9641594 11.3101759"></polygon>
                                <polygon id="Fill-8" fill="#004D98" points="125.686807 0.0708293793 125.686807 33.5627714 118.623369 33.5627714 118.623369 20.0985852 106.931868 20.0985852 106.931868 33.5627714 99.9640668 33.5627714 99.9640668 0.0708293793 106.931868 0.0708293793 106.931868 13.7305452 118.623369 13.7305452 118.623369 0.0708293793"></polygon>
                                <polygon id="Fill-10" fill="#004D98" points="157.702288 0.0708293793 178.939145 0.0708293793 178.939145 6.34145834 164.670089 6.34145834 164.670089 13.9727756 176.791839 13.9727756 176.791839 20.1462294 164.670089 20.1462294 164.670089 27.2921425 178.939145 27.2921425 178.939145 33.5627714 157.702288 33.5627714"></polygon>
                                <g id="Group-14" transform="translate(125.508409, 0.000000)">
                                    <mask id="mask-2" fill="white">
                                        <use xlink:href="#path-1"></use>
                                    </mask>
                                    <g id="Clip-13"></g>
                                    <path d="M11.7695395,21.6897343 L16.1627969,8.74302952 L20.6905938,21.6897343 L11.7695395,21.6897343 Z M24.7999521,33.562795 L32.1502988,33.562795 L19.9794567,0.0706171034 L12.3924502,0.0706171034 L0.175294955,33.562795 L7.61988875,33.562795 L9.7234282,27.8622447 L22.7158642,27.8622447 L24.7999521,33.562795 Z" id="Fill-12" fill="#004D98" mask="url(#mask-2)"></path>
                                </g>
                                <g id="Group-17" transform="translate(0.000000, 44.577931)">
                                    <mask id="mask-4" fill="white">
                                        <use xlink:href="#path-3"></use>
                                    </mask>
                                    <g id="Clip-16"></g>
                                    <path d="M3.25499806,1.29896317 C2.1386216,1.29896317 1.23574838,2.11056455 1.23574838,3.36912455 C1.23574838,4.61447628 2.1386216,5.48056179 3.25499806,5.48056179 C4.35794373,5.48056179 5.31477167,4.70905697 5.31477167,3.36912455 C5.31477167,2.015748 4.25142367,1.29896317 3.25499806,1.29896317 L3.25499806,1.29896317 Z M5.32820246,5.57514248 C4.9164793,6.2926349 4.01244825,6.68534524 3.14847801,6.68534524 C1.44763066,6.68534524 -0.000115782665,5.38574524 -0.000115782665,3.38304041 C-0.000115782665,1.36665559 1.44763066,0.0941797241 3.14847801,0.0941797241 C4.01244825,0.0941797241 4.9164793,0.459530069 5.32820246,1.17655076 L5.32820246,0.229564552 L6.52400582,0.229564552 L6.52400582,6.54996041 L5.32820246,6.54996041 L5.32820246,5.57514248 Z" id="Fill-15" fill="#004D98" mask="url(#mask-4)"></path>
                                </g>
                                <polygon id="Fill-18" fill="#004D98" points="14.9868155 51.1278207 13.2996305 46.4858193 11.6652424 51.1278207 10.682016 51.1278207 8.31680776 44.8074248 9.60570039 44.8074248 11.16043 49.2331407 12.7151596 44.8074248 13.8838699 44.8074248 15.438831 49.2331407 16.9935607 44.8074248 18.2822217 44.8074248 15.9837043 51.1278207"></polygon>
                                <path d="M22.8123343,45.8768942 C21.6959578,45.8768942 20.7930846,46.6884956 20.7930846,47.9470556 C20.7930846,49.1924073 21.6959578,50.0584928 22.8123343,50.0584928 C23.9150484,50.0584928 24.8721079,49.286988 24.8721079,47.9470556 C24.8721079,46.593679 23.8085283,45.8768942 22.8123343,45.8768942 L22.8123343,45.8768942 Z M24.8855387,50.1530735 C24.473584,50.8705659 23.5697845,51.2632763 22.7058142,51.2632763 C21.0049669,51.2632763 19.5572204,49.9636763 19.5572204,47.9609714 C19.5572204,45.9445866 21.0049669,44.6721108 22.7058142,44.6721108 C23.5697845,44.6721108 24.473584,45.0374611 24.8855387,45.7544818 L24.8855387,44.8074956 L26.081342,44.8074956 L26.081342,51.1278914 L24.8855387,51.1278914 L24.8855387,50.1530735 Z" id="Fill-20" fill="#004D98"></path>
                                <path d="M29.8406894,51.1278207 L28.6312237,51.1278207 L28.6312237,44.8074248 L29.8406894,44.8074248 L29.8406894,46.2287297 C30.1597864,45.1185269 30.7576881,44.67204 31.5674721,44.67204 C32.0065199,44.67204 32.4712715,44.7937448 32.6442508,44.9159214 L32.4585354,46.0662207 C32.1257761,45.9039476 31.7934798,45.8499352 31.5415367,45.8499352 C30.3457334,45.8499352 29.8406894,47.1488276 29.8406894,48.8272221 L29.8406894,51.1278207 Z" id="Fill-22" fill="#004D98"></path>
                                <path d="M38.9018176,47.4737983 C38.7554683,46.4180797 38.0114489,45.7821956 37.0147917,45.7821956 C35.9919677,45.7821956 35.1949198,46.4180797 35.0483389,47.4737983 L38.9018176,47.4737983 Z M40.0841902,48.4344646 L35.0483389,48.4344646 C35.1949198,49.4901832 36.0047038,50.1529556 37.054621,50.1529556 C37.7991035,50.1529556 38.4900944,49.8012852 38.8353583,49.1788452 C39.1544554,49.3144659 39.5393169,49.449379 39.8716132,49.5847639 C39.3404023,50.694259 38.2105951,51.2631583 37.0147917,51.2631583 C35.2479483,51.2631583 33.8391048,49.9505859 33.8391048,47.9471735 C33.8391048,45.9447046 35.2479483,44.6719928 37.0147917,44.6719928 C38.7823299,44.6719928 40.0978525,45.9447046 40.0978525,47.9471735 C40.0978525,48.0964742 40.0978525,48.2990797 40.0841902,48.4344646 L40.0841902,48.4344646 Z" id="Fill-24" fill="#004D98"></path>
                                <path d="M43.3786701,51.1278207 L42.1698991,51.1278207 L42.1698991,44.8074248 L43.3786701,44.8074248 L43.3786701,45.7546469 C43.750564,44.9968221 44.6409327,44.67204 45.3184929,44.67204 C46.8602549,44.67204 47.7100996,45.7006345 47.7100996,47.4738455 L47.7100996,51.1278207 L46.5013286,51.1278207 L46.5013286,47.5547462 C46.5013286,46.4990276 45.9833169,45.8768234 45.1323144,45.8768234 C44.255608,45.8768234 43.3786701,46.3773228 43.3786701,47.7170193 L43.3786701,51.1278207 Z" id="Fill-26" fill="#004D98"></path>
                                <path d="M54.8316598,47.4737983 C54.6850789,46.4180797 53.9410595,45.7821956 52.9444023,45.7821956 C51.9215783,45.7821956 51.1245304,46.4180797 50.9779495,47.4737983 L54.8316598,47.4737983 Z M56.0138008,48.4344646 L50.9779495,48.4344646 C51.1245304,49.4901832 51.9343144,50.1529556 52.9842316,50.1529556 C53.7287141,50.1529556 54.419705,49.8012852 54.7652005,49.1788452 C55.084066,49.3144659 55.4689276,49.449379 55.8014554,49.5847639 C55.2702445,50.694259 54.1402057,51.2631583 52.9444023,51.2631583 C51.1775589,51.2631583 49.7687154,49.9505859 49.7687154,47.9471735 C49.7687154,45.9447046 51.1775589,44.6719928 52.9444023,44.6719928 C54.7119405,44.6719928 56.0274631,45.9447046 56.0274631,47.9471735 C56.0274631,48.0964742 56.0274631,48.2990797 56.0138008,48.4344646 L56.0138008,48.4344646 Z" id="Fill-28" fill="#004D98"></path>
                                <path d="M57.8471961,46.2827421 C57.9400538,45.3626441 58.8964186,44.67204 59.9993643,44.67204 C61.0490499,44.67204 62.0461702,45.173011 62.1519956,46.458931 L60.996253,46.458931 C60.9297938,45.9846124 60.5044083,45.7414386 60.0262259,45.7414386 C59.5744419,45.7414386 59.1895803,45.97164 59.0964911,46.3096303 C59.0429995,46.5129434 59.0429995,46.6613007 59.1094587,46.8106014 C59.2289464,47.0679269 59.5211819,47.2026041 59.8402789,47.2976566 L60.7570461,47.5276221 C62.0461702,47.8524041 62.3650357,48.6510331 62.3650357,49.3685255 C62.3650357,50.5457131 61.2486592,51.2632055 59.9597666,51.2632055 C58.8436217,51.2632055 57.6876476,50.5325048 57.6478184,49.2331407 L58.7503009,49.2331407 C58.7903617,49.5039103 58.963341,49.8013324 59.2553449,49.9506331 C59.5211819,50.1129062 59.8402789,50.1938069 60.2388028,50.1669186 C60.7971069,50.1261145 61.1692323,49.8013324 61.1819684,49.3416372 C61.1951677,48.8812345 60.8103061,48.6510331 60.3582906,48.5430083 L59.5079827,48.339931 C58.3786386,48.0285931 57.7406761,47.4467214 57.8471961,46.2827421" id="Fill-30" fill="#004D98"></path>
                                <path d="M64.2111903,46.2827421 C64.304048,45.3626441 65.2604128,44.67204 66.3633585,44.67204 C67.4132757,44.67204 68.4101644,45.173011 68.5162213,46.458931 L67.3604788,46.458931 C67.2940195,45.9846124 66.8684025,45.7414386 66.3904516,45.7414386 C65.9384361,45.7414386 65.5535745,45.97164 65.4607168,46.3096303 C65.4069937,46.5129434 65.4069937,46.6613007 65.4734529,46.8106014 C65.5931722,47.0679269 65.8854076,47.2026041 66.2042731,47.2976566 L67.1212718,47.5276221 C68.4101644,47.8524041 68.7292614,48.6510331 68.7292614,49.3685255 C68.7292614,50.5457131 67.6126534,51.2632055 66.3239924,51.2632055 C65.2076159,51.2632055 64.0518734,50.5325048 64.0118125,49.2331407 L65.1145266,49.2331407 C65.1545875,49.5039103 65.3275668,49.8013324 65.6195706,49.9506331 C65.8854076,50.1129062 66.2042731,50.1938069 66.602797,50.1669186 C67.1613326,50.1261145 67.5334581,49.8013324 67.5461942,49.3416372 C67.5591618,48.8812345 67.1743003,48.6510331 66.7225163,48.5430083 L65.8719768,48.339931 C64.7426327,48.0285931 64.1046702,47.4467214 64.2111903,46.2827421" id="Fill-32" fill="#004D98"></path>
                                <g id="Group-36" transform="translate(69.932730, 49.531034)">
                                    <mask id="mask-6" fill="white">
                                        <use xlink:href="#path-5"></use>
                                    </mask>
                                    <g id="Clip-35"></g>
                                    <path d="M0.111220828,3.01794952 C0.629000906,2.28654124 1.04118719,1.32587503 1.01386248,0.0406626207 L2.28978745,0.0406626207 C2.17053131,1.71834952 1.53256882,2.82855228 0.961065589,3.30216331 L0.111220828,3.01794952 Z" id="Fill-34" fill="#004D98" mask="url(#mask-6)"></path>
                                </g>
                                <path d="M81.6020939,45.8768942 C80.4864122,45.8768942 79.5828442,46.6884956 79.5828442,47.9470556 C79.5828442,49.1924073 80.4864122,50.0584928 81.6020939,50.0584928 C82.7050396,50.0584928 83.6620991,49.286988 83.6620991,47.9470556 C83.6620991,46.593679 82.5992142,45.8768942 81.6020939,45.8768942 L81.6020939,45.8768942 Z M83.6752983,50.1530735 C83.2635752,50.8705659 82.3600072,51.2632763 81.4962686,51.2632763 C79.7954212,51.2632763 78.3469801,49.9636763 78.3469801,47.9609714 C78.3469801,45.9445866 79.7954212,44.6721108 81.4962686,44.6721108 C82.3600072,44.6721108 83.2635752,45.0374611 83.6752983,45.7544818 L83.6752983,44.8074956 L84.8711017,44.8074956 L84.8711017,51.1278914 L83.6752983,51.1278914 L83.6752983,50.1530735 Z" id="Fill-37" fill="#004D98"></path>
                                <path d="M88.6307038,51.1278207 L87.421238,51.1278207 L87.421238,44.8074248 L88.6307038,44.8074248 L88.6307038,45.7546469 C89.0025977,44.9968221 89.8929664,44.67204 90.5709897,44.67204 C92.1115938,44.67204 92.9625964,45.7006345 92.9625964,47.4738455 L92.9625964,51.1278207 L91.7531307,51.1278207 L91.7531307,47.5547462 C91.7531307,46.4990276 91.2348875,45.8768234 90.3848111,45.8768234 C89.5076417,45.8768234 88.6307038,46.3773228 88.6307038,47.7170193 L88.6307038,51.1278207 Z" id="Fill-39" fill="#004D98"></path>
                                <path d="M95.1801123,46.2827421 C95.2732016,45.3626441 96.2300295,44.67204 97.3329752,44.67204 C98.3826608,44.67204 99.3790864,45.173011 99.4856065,46.458931 L98.3298639,46.458931 C98.2629415,45.9846124 97.8380191,45.7414386 97.3598367,45.7414386 C96.9080528,45.7414386 96.5224965,45.97164 96.4296388,46.3096303 C96.3759157,46.5129434 96.3759157,46.6613007 96.4430696,46.8106014 C96.5620942,47.0679269 96.8550243,47.2026041 97.1734266,47.2976566 L98.0901938,47.5276221 C99.3790864,47.8524041 99.6981834,48.6510331 99.6981834,49.3685255 C99.6981834,50.5457131 98.5815754,51.2632055 97.2929144,51.2632055 C96.1772326,51.2632055 95.0212585,50.5325048 94.9814292,49.2331407 L96.0841433,49.2331407 C96.1239726,49.5039103 96.2964887,49.8013324 96.5889558,49.9506331 C96.8550243,50.1129062 97.1734266,50.1938069 97.5719506,50.1669186 C98.1302546,50.1261145 98.5023801,49.8013324 98.5158109,49.3416372 C98.5287785,48.8812345 98.1439169,48.6510331 97.6919014,48.5430083 L96.8408988,48.339931 C95.7122494,48.0285931 95.0742869,47.4467214 95.1801123,46.2827421" id="Fill-41" fill="#004D98"></path>
                                <polygon id="Fill-43" fill="#004D98" points="107.629898 51.1278207 105.942713 46.4858193 104.307862 51.1278207 103.325099 51.1278207 100.95989 44.8074248 102.248783 44.8074248 103.803049 49.2331407 105.357547 44.8074248 106.526952 44.8074248 108.081914 49.2331407 109.63618 44.8074248 110.924841 44.8074248 108.626324 51.1278207"></polygon>
                                <path d="M117.262483,47.4737983 C117.116134,46.4180797 116.372114,45.7821956 115.375457,45.7821956 C114.352633,45.7821956 113.555585,46.4180797 113.409005,47.4737983 L117.262483,47.4737983 Z M118.444856,48.4344646 L113.409005,48.4344646 C113.555585,49.4901832 114.365369,50.1529556 115.415287,50.1529556 C116.159769,50.1529556 116.85076,49.8012852 117.196024,49.1788452 C117.515121,49.3144659 117.899983,49.449379 118.232279,49.5847639 C117.701068,50.694259 116.571261,51.2631583 115.375457,51.2631583 C113.608614,51.2631583 112.19977,49.9505859 112.19977,47.9471735 C112.19977,45.9447046 113.608614,44.6719928 115.375457,44.6719928 C117.142995,44.6719928 118.458287,45.9447046 118.458287,47.9471735 C118.458287,48.0964742 118.458287,48.2990797 118.444856,48.4344646 L118.444856,48.4344646 Z" id="Fill-45" fill="#004D98"></path>
                                <path d="M121.739336,51.1278207 L120.530565,51.1278207 L120.530565,44.8074248 L121.739336,44.8074248 L121.739336,46.2287297 C122.058433,45.1185269 122.656334,44.67204 123.466582,44.67204 C123.905166,44.67204 124.369918,44.7937448 124.542897,44.9159214 L124.357182,46.0662207 C124.025117,45.9039476 123.692821,45.8499352 123.440183,45.8499352 C122.24438,45.8499352 121.739336,47.1488276 121.739336,48.8272221 L121.739336,51.1278207 Z" id="Fill-47" fill="#004D98"></path>
                                <path d="M126.003843,46.2827421 C126.096701,45.3626441 127.053528,44.67204 128.156474,44.67204 C129.206391,44.67204 130.202817,45.173011 130.309105,46.458931 L129.153363,46.458931 C129.08644,45.9846124 128.661518,45.7414386 128.183567,45.7414386 C127.731552,45.7414386 127.345995,45.97164 127.253138,46.3096303 C127.199646,46.5129434 127.199646,46.6613007 127.266569,46.8106014 C127.385593,47.0679269 127.678523,47.2026041 127.996926,47.2976566 L128.913693,47.5276221 C130.202817,47.8524041 130.521682,48.6510331 130.521682,49.3685255 C130.521682,50.5457131 129.405074,51.2632055 128.116413,51.2632055 C127.000732,51.2632055 125.844757,50.5325048 125.804928,49.2331407 L126.907642,49.2331407 C126.947703,49.5039103 127.119988,49.8013324 127.412455,49.9506331 C127.678523,50.1129062 127.996926,50.1938069 128.39545,50.1669186 C128.953754,50.1261145 129.325879,49.8013324 129.33931,49.3416372 C129.352277,48.8812345 128.967416,48.6510331 128.5154,48.5430083 L127.664629,48.339931 C126.535748,48.0285931 125.897786,47.4467214 126.003843,46.2827421" id="Fill-49" fill="#004D98"></path>
                                <g id="Group-53" transform="translate(131.760673, 49.531034)">
                                    <mask id="mask-8" fill="white">
                                        <use xlink:href="#path-7"></use>
                                    </mask>
                                    <g id="Clip-52"></g>
                                    <path d="M0.0761849935,3.01794952 C0.594196636,2.28654124 1.00615136,1.32587503 0.979058215,0.0406626207 L2.25498318,0.0406626207 C2.13549547,1.71834952 1.49753299,2.82855228 0.926029754,3.30216331 L0.0761849935,3.01794952 Z" id="Fill-51" fill="#004D98" mask="url(#mask-8)"></path>
                                </g>
                                <path d="M143.39521,45.8768942 C142.279528,45.8768942 141.37596,46.6884956 141.37596,47.9470556 C141.37596,49.1924073 142.279528,50.0584928 143.39521,50.0584928 C144.498155,50.0584928 145.454983,49.286988 145.454983,47.9470556 C145.454983,46.593679 144.392098,45.8768942 143.39521,45.8768942 L143.39521,45.8768942 Z M145.468414,50.1530735 C145.056459,50.8705659 144.153123,51.2632763 143.289384,51.2632763 C141.588537,51.2632763 140.140096,49.9636763 140.140096,47.9609714 C140.140096,45.9445866 141.588537,44.6721108 143.289384,44.6721108 C144.153123,44.6721108 145.056459,45.0374611 145.468414,45.7544818 L145.468414,44.8074956 L146.664217,44.8074956 L146.664217,51.1278914 L145.468414,51.1278914 L145.468414,50.1530735 Z" id="Fill-54" fill="#004D98"></path>
                                <path d="M152.085023,44.6720164 C153.027725,44.6720164 153.891927,45.0376026 154.476629,45.6874026 L153.559862,46.4721157 C153.187968,46.0930854 152.656063,45.8767999 152.085023,45.8767999 C150.968183,45.8767999 149.998156,46.675193 149.998156,47.9471971 C149.998156,49.2192012 150.968183,50.0723143 152.085023,50.0723143 C152.656063,50.0723143 153.187968,49.842113 153.559862,49.4494026 L154.489829,50.2345874 C153.904663,50.8843874 153.041388,51.2631819 152.085023,51.2631819 C150.317253,51.2631819 148.802353,49.9506095 148.802353,47.9471971 C148.802353,45.9447281 150.317253,44.6720164 152.085023,44.6720164" id="Fill-56" fill="#004D98"></path>
                                <polygon id="Fill-58" fill="#004D98" points="159.53786 44.8074484 159.53786 45.8499588 158.223032 45.8499588 158.223032 51.1278443 157.013335 51.1278443 157.013335 45.8499588 155.897422 45.8499588 155.897422 44.8074484 157.013335 44.8074484 157.013335 42.4252415 158.223032 42.4252415 158.223032 44.8074484"></polygon>
                                <mask id="mask-10" fill="white">
                                    <use xlink:href="#path-9"></use>
                                </mask>
                                <g id="Clip-61"></g>
                                <path d="M161.437622,51.1278207 L162.633426,51.1278207 L162.633426,44.8074248 L161.437622,44.8074248 L161.437622,51.1278207 Z M162.035524,41.6808372 C162.500507,41.6808372 162.872401,42.0195352 162.872401,42.4799379 C162.872401,42.9396331 162.500507,43.278331 162.035524,43.278331 C161.583508,43.278331 161.198647,42.9396331 161.198647,42.4799379 C161.198647,42.0195352 161.583508,41.6808372 162.035524,41.6808372 L162.035524,41.6808372 Z" id="Fill-60" fill="#004D98" mask="url(#mask-10)"></path>
                                <path d="M170.060282,47.9471263 C170.060282,46.6751222 169.130547,45.876965 168.01417,45.876965 C166.897794,45.876965 165.967827,46.6751222 165.967827,47.9471263 C165.967827,49.2330463 166.897794,50.0722436 168.01417,50.0722436 C169.130547,50.0722436 170.060282,49.2330463 170.060282,47.9471263 M164.772024,47.9471263 C164.772024,45.9446574 166.246864,44.6719457 168.01417,44.6719457 C169.781477,44.6719457 171.269284,45.9446574 171.269284,47.9471263 C171.269284,49.9505388 169.781477,51.263347 168.01417,51.263347 C166.246864,51.263347 164.772024,49.9505388 164.772024,47.9471263" id="Fill-62" fill="#004D98" mask="url(#mask-10)"></path>
                                <path d="M174.617186,51.1278207 L173.40772,51.1278207 L173.40772,44.8074248 L174.617186,44.8074248 L174.617186,45.7546469 C174.98908,44.9968221 175.879449,44.67204 176.557472,44.67204 C178.098076,44.67204 178.949079,45.7006345 178.949079,47.4738455 L178.949079,51.1278207 L177.739613,51.1278207 L177.739613,47.5547462 C177.739613,46.4990276 177.22137,45.8768234 176.371525,45.8768234 C175.494124,45.8768234 174.617186,46.3773228 174.617186,47.7170193 L174.617186,51.1278207 Z" id="Fill-63" fill="#004D98" mask="url(#mask-10)"></path>
                            </g>
                        </g>
                    </g>
                </g>
            </g>
        </g>
    </g>
</svg>