
<?xml version="1.0" encoding="utf-8"?>
<!-- Generator: Adobe Illustrator 28.1.0, SVG Export Plug-In . SVG Version: 6.00 Build 0)  -->
<svg version="1.1" id="Layer_1" xmlns="http://www.w3.org/2000/svg" xmlns:xlink="http://www.w3.org/1999/xlink" x="0px" y="0px"
	 viewBox="0 0 56.7 56.7" style="enable-background:new 0 0 56.7 56.7;" xml:space="preserve">
<style type="text/css">
	.st0{fill:#FF0000;}
	.st1{fill:#FFFFFF;}
</style>
<circle class="st0" cx="28.3" cy="28.3" r="28.3"/>
<path class="st1" d="M46.3,19.3c-0.4-1.6-1.7-2.9-3.3-3.3c-2.9-0.8-14.6-0.8-14.6-0.8s-11.7,0-14.6,0.8c-1.6,0.4-2.9,1.7-3.3,3.3
	c-0.8,2.9-0.8,9-0.8,9s0,6.1,0.8,9c0.4,1.6,1.7,2.9,3.3,3.3c2.9,0.8,14.6,0.8,14.6,0.8s11.7,0,14.6-0.8c1.6-0.4,2.9-1.7,3.3-3.3
	c0.8-2.9,0.8-9,0.8-9S47.1,22.3,46.3,19.3z"/>
<polygon class="st0" points="24.6,34 34.3,28.4 24.6,22.7 "/>
</svg>
